<svg xmlns="http://www.w3.org/2000/svg" viewBox="0 0 480 60" role="img" aria-label="Leisure Suit Mailman title">
  <rect width="480" height="60" fill="#0000aa"/>
  <rect width="480" height="3" fill="#ffff55"/>
  <rect y="57" width="480" height="3" fill="#ffff55"/>
  <rect x="4" y="4" width="472" height="52" fill="none" stroke="#55ffff" stroke-width="2"/>
  <!-- pixel mailman (pink suit) -->
  <g transform="translate(18,14)">
    <rect x="8" y="0" width="12" height="6" fill="#ffaa55"/>
    <rect x="10" y="6" width="8" height="4" fill="#ffaa55"/>
    <rect x="6" y="10" width="16" height="14" fill="#ff55ff"/>
    <rect x="4" y="12" width="4" height="10" fill="#ff55ff"/>
    <rect x="20" y="12" width="4" height="10" fill="#ff55ff"/>
    <rect x="8" y="24" width="6" height="10" fill="#0000aa"/>
    <rect x="14" y="24" width="6" height="10" fill="#0000aa"/>
    <rect x="22" y="14" width="10" height="12" fill="#aa5500"/>
    <rect x="24" y="16" width="6" height="4" fill="#ffff55"/>
    <rect x="10" y="2" width="2" height="2" fill="#000"/>
    <rect x="16" y="2" width="2" height="2" fill="#000"/>
  </g>
  <!-- LEISURE block letters -->
  <g fill="#ffffff">
    <rect x="72" y="16" width="4" height="22"/><rect x="76" y="16" width="14" height="4"/><rect x="86" y="20" width="4" height="6"/><rect x="76" y="26" width="14" height="4"/>
    <rect x="96" y="20" width="4" height="18"/><rect x="100" y="16" width="14" height="4"/><rect x="110" y="20" width="4" height="18"/>
    <rect x="118" y="20" width="4" height="18"/><rect x="122" y="16" width="4" height="22"/>
    <rect x="130" y="16" width="18" height="4"/><rect x="130" y="26" width="18" height="4"/><rect x="130" y="20" width="4" height="6"/><rect x="144" y="20" width="4" height="18"/>
    <rect x="152" y="16" width="4" height="22"/><rect x="156" y="16" width="14" height="4"/><rect x="166" y="20" width="4" height="18"/><rect x="156" y="26" width="14" height="4"/>
    <rect x="174" y="16" width="18" height="4"/><rect x="174" y="34" width="18" height="4"/><rect x="174" y="20" width="4" height="14"/>
  </g>
  <!-- SUIT MAILMAN row -->
  <g fill="#ffff55">
    <rect x="72" y="40" width="4" height="14"/><rect x="76" y="40" width="14" height="4"/><rect x="86" y="44" width="4" height="6"/><rect x="76" y="48" width="14" height="4"/>
    <rect x="96" y="44" width="4" height="10"/><rect x="100" y="40" width="14" height="4"/><rect x="110" y="44" width="4" height="10"/>
    <rect x="118" y="40" width="4" height="14"/><rect x="122" y="40" width="14" height="4"/><rect x="132" y="44" width="4" height="10"/>
    <rect x="140" y="40" width="18" height="4"/><rect x="140" y="50" width="18" height="4"/><rect x="140" y="44" width="4" height="6"/><rect x="154" y="44" width="4" height="10"/>
    <rect x="162" y="40" width="4" height="14"/><rect x="166" y="40" width="14" height="4"/><rect x="176" y="44" width="4" height="10"/><rect x="166" y="48" width="14" height="4"/>
    <rect x="184" y="40" width="18" height="4"/><rect x="184" y="50" width="18" height="4"/><rect x="184" y="44" width="4" height="6"/><rect x="198" y="44" width="4" height="10"/>
    <rect x="206" y="40" width="4" height="14"/><rect x="210" y="40" width="18" height="4"/><rect x="210" y="50" width="18" height="4"/><rect x="218" y="44" width="4" height="6"/>
    <rect x="232" y="40" width="4" height="14"/><rect x="236" y="40" width="14" height="4"/><rect x="246" y="44" width="4" height="10"/><rect x="236" y="48" width="14" height="4"/>
    <rect x="254" y="40" width="4" height="14"/><rect x="258" y="40" width="18" height="4"/><rect x="258" y="50" width="18" height="4"/><rect x="266" y="44" width="4" height="6"/>
    <rect x="280" y="40" width="4" height="14"/><rect x="284" y="40" width="14" height="4"/><rect x="294" y="44" width="4" height="10"/><rect x="284" y="48" width="14" height="4"/>
    <rect x="302" y="44" width="4" height="10"/><rect x="306" y="40" width="14" height="4"/><rect x="316" y="44" width="4" height="10"/>
    <rect x="324" y="40" width="4" height="14"/><rect x="328" y="40" width="18" height="4"/><rect x="328" y="50" width="18" height="4"/><rect x="336" y="44" width="4" height="6"/>
  </g>
  <!-- EGA badge -->
  <rect x="400" y="18" width="68" height="28" fill="#000055" stroke="#ff55ff" stroke-width="2"/>
  <text x="434" y="32" text-anchor="middle" fill="#55ffff" font-family="monospace" font-size="8" font-weight="bold">EGA</text>
  <text x="434" y="42" text-anchor="middle" fill="#ffff55" font-family="monospace" font-size="7">v1.0</text>
</svg>