<svg xmlns="http://www.w3.org/2000/svg" viewBox="0 0 240 36" role="img" aria-label="Macintosh">
  <rect width="240" height="36" rx="3" fill="#b8b8b8"/>
  <rect x="1" y="1" width="238" height="34" rx="2" fill="#d4d4d4" stroke="#9a9a9a" stroke-width="1"/>
  <!-- Apple logo -->
  <g transform="translate(12,7)" fill="#1a1a1a">
    <path d="M11.2 2.2c.1 1.4-.8 2.8-1.8 3.7-1.1 1-2.3 1.7-3.7 1.6-.1-1.3.9-2.6 1.8-3.5 1-.9 2.5-1.6 3.7-1.8z"/>
    <path d="M12.4 5.8c2.1.2 3.6 1.2 4.6 1.2-.6 1.8-1.7 3.6-3 4.8-1.1 1-2.4 2.1-4.1 2.1-1.6 0-2.6-.8-4-.8s-2.5.8-4.1.8c-1.6 0-3-1.2-4.1-2.3C-1.1 9.3-.2 5.9 2.2 4c1.2-.9 2.8-1.4 4.4-1.4 1.6 0 2.9.8 4 .8 1.1 0 2.5-.7 4.2-.6.1 0 .2 0 .3 0 1.5.1 2.5.6 3.5 1z"/>
  </g>
  <text x="44" y="23" fill="#1a1a1a" font-family="Helvetica, Arial, sans-serif" font-size="17" font-weight="700" letter-spacing="0.5">Macintosh</text>
  <text x="178" y="22" fill="#5a5a5a" font-family="Helvetica, Arial, sans-serif" font-size="10" font-weight="600">128K</text>
</svg>